<?xml version="1.0" standalone="no"?>
<!DOCTYPE svg PUBLIC "-//W3C//DTD SVG 20010904//EN"
 "http://www.w3.org/TR/2001/REC-SVG-20010904/DTD/svg10.dtd">
<svg version="1.0" xmlns="http://www.w3.org/2000/svg"
 width="512.000000pt" height="512.000000pt" viewBox="0 0 512.000000 512.000000"
 preserveAspectRatio="xMidYMid meet">
<metadata>
Created by potrace 1.11, written by Peter Selinger 2001-2013
</metadata>
<g transform="translate(0.000000,512.000000) scale(0.100000,-0.100000)"
fill="#000000" stroke="none">
<path d="M1810 2475 l0 -1005 115 0 115 0 0 955 c0 829 2 955 15 955 18 0 2
97 150 -955 69 -490 128 -905 131 -922 l6 -33 217 0 218 0 117 833 c65 457
125 886 135 952 13 97 20 120 34 123 16 3 17 -52 17 -952 l0 -956 110 0 110 0
0 1005 0 1005 -228 0 -228 0 -17 -122 c-9 -68 -69 -496 -133 -951 -113 -795
-124 -860 -149 -835 -2 2 -63 422 -135 933 -72 512 -133 940 -136 953 l-4 22
-230 0 -230 0 0 -1005z"/>
<path d="M3736 1876 c-56 -21 -87 -47 -113 -92 -80 -142 15 -307 177 -307 116
0 203 87 203 202 0 59 -24 122 -59 152 -56 49 -145 68 -208 45z"/>
</g>
</svg>
